<svg width="258" height="59" viewBox="0 0 258 59" fill="none" xmlns="http://www.w3.org/2000/svg">
<g clip-path="url(#clip0_112_818)">
<g clip-path="url(#clip1_112_818)">
<g clip-path="url(#clip2_112_818)">
<path d="M152.904 23.8398C156.168 23.8398 158.814 26.4863 158.814 29.7508C158.814 33.0152 156.168 35.6617 152.904 35.6617C149.639 35.6617 146.993 33.0152 146.993 29.7508C146.993 26.4863 149.639 23.8398 152.904 23.8398Z" fill="#0000FF"/>
<path d="M122.462 14.2298C128.265 14.2298 133.985 16.7212 138.351 21.6193V-2.53516H146.993V38.1304C146.993 38.1313 146.993 38.1323 146.993 38.1334C146.993 51.3349 136.291 62.0367 123.089 62.0367C109.888 62.0367 99.1858 51.3349 99.1858 38.1334C99.1858 24.932 109.261 14.2298 122.462 14.2298ZM123.089 52.83C131.206 52.83 137.786 46.25 137.786 38.1333C137.786 30.0164 131.206 23.4364 123.089 23.4364C114.973 23.4364 108.392 30.0164 108.392 38.1333C108.392 46.2501 114.973 52.83 123.089 52.83Z" fill="#262626"/>
</g>
</g>
</g>
<defs>
<clipPath id="clip0_112_818">
<rect width="258" height="58" fill="white" transform="matrix(-1 0 0 1 258 0.75)"/>
</clipPath>
<clipPath id="clip1_112_818">
<rect width="60" height="64.6875" fill="white" transform="matrix(-1 0 0 1 159 -2.59375)"/>
</clipPath>
<clipPath id="clip2_112_818">
<rect width="60" height="64.5719" fill="white" transform="matrix(-1 0 0 1 159 -2.53516)"/>
</clipPath>
</defs>
</svg>
