<svg width="87" height="84" viewBox="0 0 87 84" fill="none" xmlns="http://www.w3.org/2000/svg">
<g clip-path="url(#clip0_9_1177)">
<g clip-path="url(#clip1_9_1177)">
<g clip-path="url(#clip2_9_1177)">
<path d="M52.6578 19.5611C44.3401 19.5611 36.1419 23.132 29.883 30.1526V-4.46875H17.4973V53.8185C17.4973 53.8199 17.4973 53.8213 17.4973 53.8229C17.4973 72.7449 32.8366 88.0842 51.7589 88.0842C70.6809 88.0842 86.0205 72.7449 86.0205 53.8229C86.0205 34.9009 71.5799 19.5611 52.6578 19.5611ZM51.7589 74.888C40.1247 74.888 30.6933 65.4566 30.6933 53.8227C30.6933 42.1885 40.1247 32.7571 51.7589 32.7571C63.3928 32.7571 72.8242 42.1885 72.8242 53.8227C72.8242 65.4568 63.3928 74.888 51.7589 74.888Z" fill="#262626"/>
<path d="M8.49283 71.1406C3.81357 71.1406 0.0205078 74.9339 0.0205078 79.6129C0.0205078 84.292 3.81357 88.0853 8.49283 88.0853C13.1721 88.0853 16.9652 84.292 16.9652 79.6129C16.9652 74.9339 13.1721 71.1406 8.49283 71.1406Z" fill="#0000FF"/>
</g>
</g>
</g>
<defs>
<clipPath id="clip0_9_1177">
<rect width="86" height="83" fill="white" transform="translate(0.0205078 0.390625)"/>
</clipPath>
<clipPath id="clip1_9_1177">
<rect width="86" height="83" fill="white" transform="translate(0.0205078 0.390625)"/>
</clipPath>
<clipPath id="clip2_9_1177">
<rect width="86" height="92.7188" fill="white" transform="translate(0.0205078 -4.46875)"/>
</clipPath>
</defs>
</svg>
