<svg width="78" height="71" viewBox="0 0 78 71" fill="none" xmlns="http://www.w3.org/2000/svg">
<g clip-path="url(#clip0_107_126)">
<g clip-path="url(#clip1_107_126)">
<g clip-path="url(#clip2_107_126)">
<g clip-path="url(#clip3_107_126)">
<path d="M36.6604 71.2916C56.5261 71.2916 72.6304 55.1872 72.6304 35.3216C72.6304 15.4559 56.5261 -0.648438 36.6604 -0.648438C16.7947 -0.648438 0.69043 15.4559 0.69043 35.3216C0.69043 55.1872 16.7947 71.2916 36.6604 71.2916Z" fill="#4353FF"/>
<path d="M47.2266 31.0498L43.9668 41.3237C43.9668 40.5369 41.7187 23.4961 41.7187 23.4961C36.548 23.4961 33.8053 27.1605 32.3665 31.0498L28.3873 41.3462C28.3873 40.6043 27.8252 31.1397 27.8252 31.1397C27.6333 29.0908 26.6966 27.1835 25.1926 25.7789C23.6886 24.3743 21.7218 23.5701 19.6646 23.5186L23.891 49.327C29.2865 49.327 32.2091 45.6626 33.7153 41.7733L37.0875 33.0057C37.0875 33.3654 39.3356 49.327 39.3356 49.327C41.5419 49.3242 43.69 48.6189 45.4685 47.3133C47.247 46.0077 48.5636 44.1697 49.2274 42.0656L56.871 23.4961C51.4755 23.4961 48.6429 27.1605 47.2041 31.0498H47.2266Z" fill="white"/>
</g>
</g>
</g>
</g>
<defs>
<clipPath id="clip0_107_126">
<rect width="71.94" height="69.44" fill="white" transform="translate(0.69043 0.601562)"/>
</clipPath>
<clipPath id="clip1_107_126">
<rect width="71.94" height="69.44" fill="white" transform="translate(0.69043 0.601562)"/>
</clipPath>
<clipPath id="clip2_107_126">
<rect width="71.94" height="69.44" fill="white" transform="translate(0.69043 0.601562)"/>
</clipPath>
<clipPath id="clip3_107_126">
<rect width="71.94" height="71.94" fill="white" transform="translate(0.69043 -0.648438)"/>
</clipPath>
</defs>
</svg>
