<svg width="72" height="71" viewBox="0 0 72 71" fill="none" xmlns="http://www.w3.org/2000/svg">
<g clip-path="url(#clip0_107_96)">
<g clip-path="url(#clip1_107_96)">
<g clip-path="url(#clip2_107_96)">
<g clip-path="url(#clip3_107_96)">
<path d="M59.8911 0.25H13.4298C6.38568 0.25 0.69043 5.94525 0.69043 12.9894V57.6521C0.69043 64.6963 6.38568 70.3915 13.4298 70.3915H59.8911C66.9352 70.3915 72.6304 64.6963 72.6304 57.6521V12.9894C72.6304 5.94525 66.9352 0.25 59.8911 0.25ZM37.7395 35.1709C36.5405 36.8495 34.8619 38.1084 32.9136 38.8278C30.8753 39.5772 28.6271 39.847 26.1692 39.847C25.4498 39.847 24.9702 39.847 24.6704 39.817C24.3707 39.787 23.951 39.787 23.3815 39.787V49.409C23.4115 49.6188 23.2616 49.7987 23.0518 49.8286H17.2366C16.9968 49.8286 16.8769 49.7088 16.8769 49.439V18.5947C16.8769 18.3849 16.9669 18.265 17.1767 18.265C17.6863 18.265 18.1659 18.265 18.8553 18.235C19.5747 18.205 20.3241 18.205 21.1334 18.1751C21.9427 18.1451 22.812 18.1451 23.7412 18.1151C24.6704 18.0851 25.5697 18.0851 26.4689 18.0851C28.9269 18.0851 30.9652 18.3849 32.6438 19.0143C34.1425 19.5239 35.5214 20.3632 36.6604 21.4723C37.6196 22.4315 38.369 23.6005 38.8486 24.8894C39.2982 26.1484 39.538 27.4373 39.538 28.7862C39.538 31.364 38.9385 33.4923 37.7395 35.1709ZM58.9918 46.8312C58.1525 48.0301 56.9835 48.9594 55.6346 49.4989C54.1658 50.1284 52.3673 50.4581 50.2091 50.4581C48.8303 50.4581 47.4814 50.3382 46.1325 50.0685C45.0834 49.8886 44.0343 49.5589 43.0751 49.1092C42.8653 48.9893 42.7154 48.7795 42.7454 48.5397V43.3241C42.7454 43.2341 42.7753 43.1143 42.8653 43.0543C42.9552 42.9944 43.0451 43.0243 43.135 43.0843C44.3041 43.7737 45.533 44.2533 46.8519 44.5531C47.991 44.8528 49.19 45.0027 50.389 45.0027C51.588 45.0027 52.3374 44.8528 52.8769 44.583C53.3565 44.3732 53.6862 43.8636 53.6862 43.3241C53.6862 42.9044 53.4464 42.5147 52.9668 42.1251C52.4872 41.7354 51.4981 41.2858 50.0293 40.7163C48.5006 40.1767 47.0917 39.4573 45.7728 38.5581C44.8436 37.8986 44.0643 37.0293 43.4947 36.0102C43.0151 35.051 42.7753 34.0019 42.8053 32.9527C42.8053 31.6638 43.165 30.4348 43.8245 29.3258C44.5738 28.1268 45.6829 27.1676 46.9718 26.5681C48.3807 25.8486 50.1492 25.5189 52.2774 25.5189C53.5064 25.5189 54.7653 25.6088 55.9943 25.7887C56.8936 25.9086 57.7628 26.1484 58.5722 26.4781C58.6921 26.5081 58.812 26.628 58.8719 26.7479C58.9019 26.8678 58.9319 26.9877 58.9319 27.1076V31.9935C58.9319 32.1134 58.8719 32.2333 58.782 32.2933C58.5122 32.3532 58.3623 32.3532 58.2424 32.2933C57.3432 31.8137 56.384 31.4839 55.3648 31.2741C54.2558 31.0343 53.1467 30.8844 52.0076 30.8844C51.4081 30.8545 50.7787 30.9444 50.2091 31.0943C49.8195 31.1842 49.4897 31.394 49.2799 31.6938C49.13 31.9336 49.0401 32.2333 49.0401 32.5031C49.0401 32.7729 49.16 33.0426 49.3399 33.2824C49.6096 33.6122 49.9693 33.882 50.359 34.0918C51.0484 34.4515 51.7678 34.7812 52.4872 35.0809C54.1059 35.6205 55.6646 36.3699 57.1034 37.2691C58.0926 37.8986 58.9019 38.7379 59.4714 39.757C59.951 40.7163 60.1908 41.7654 60.1608 42.8445C60.1908 44.2533 59.7712 45.6621 58.9918 46.8312Z" fill="white"/>
<path d="M30.2159 24.591C29.1069 24.1413 27.9079 23.9615 26.6789 23.9915C25.8995 23.9915 25.2101 23.9915 24.6406 24.0214C24.0411 23.9915 23.6214 24.0214 23.4116 24.0514V34.123C23.8313 34.153 24.2209 34.183 24.5806 34.183H26.1693C27.3383 34.183 28.5074 34.0031 29.6164 33.6434C30.5756 33.3736 31.4149 32.8041 32.0744 32.0547C32.7039 31.3054 33.0036 30.2862 33.0036 28.9673C33.0336 28.0381 32.7938 27.1089 32.3142 26.2995C31.8046 25.5202 31.0852 24.9207 30.2159 24.591Z" fill="white"/>
</g>
</g>
</g>
</g>
<defs>
<clipPath id="clip0_107_96">
<rect width="71" height="70" fill="white" transform="translate(0.69043 0.601562)"/>
</clipPath>
<clipPath id="clip1_107_96">
<rect width="71" height="70" fill="white" transform="translate(0.69043 0.601562)"/>
</clipPath>
<clipPath id="clip2_107_96">
<rect width="71.94" height="69.44" fill="white" transform="translate(0.69043 0.601562)"/>
</clipPath>
<clipPath id="clip3_107_96">
<rect width="71.94" height="70.1415" fill="white" transform="translate(0.69043 0.25)"/>
</clipPath>
</defs>
</svg>
