<svg width="72" height="71" viewBox="0 0 72 71" fill="none" xmlns="http://www.w3.org/2000/svg">
<g clip-path="url(#clip0_9_1435)">
<g clip-path="url(#clip1_9_1435)">
<g clip-path="url(#clip2_9_1435)">
<g clip-path="url(#clip3_9_1435)">
<path d="M35.9905 71.3306C55.8562 71.3306 71.9605 55.2263 71.9605 35.3606C71.9605 15.4949 55.8562 -0.609375 35.9905 -0.609375C16.1248 -0.609375 0.0205078 15.4949 0.0205078 35.3606C0.0205078 55.2263 16.1248 71.3306 35.9905 71.3306Z" fill="#4353FF"/>
<path d="M46.5566 31.0888L43.2969 41.3628C43.2969 40.5759 41.0487 23.5352 41.0487 23.5352C35.878 23.5352 33.1353 27.1996 31.6965 31.0888L27.7174 41.3853C27.7174 40.6434 27.1553 31.1788 27.1553 31.1788C26.9634 29.1299 26.0267 27.2225 24.5227 25.818C23.0187 24.4134 21.0518 23.6092 18.9946 23.5576L23.2211 49.3661C28.6166 49.3661 31.5392 45.7017 33.0454 41.8124L36.4176 33.0447C36.4176 33.4044 38.6657 49.3661 38.6657 49.3661C40.872 49.3633 43.0201 48.6579 44.7986 47.3523C46.5771 46.0468 47.8937 44.2087 48.5575 42.1047L56.2011 23.5352C50.8056 23.5352 47.973 27.1996 46.5342 31.0888H46.5566Z" fill="white"/>
</g>
</g>
</g>
</g>
<defs>
<clipPath id="clip0_9_1435">
<rect width="71.94" height="69.44" fill="white" transform="translate(0.0205078 0.640625)"/>
</clipPath>
<clipPath id="clip1_9_1435">
<rect width="71.94" height="69.44" fill="white" transform="translate(0.0205078 0.640625)"/>
</clipPath>
<clipPath id="clip2_9_1435">
<rect width="71.94" height="69.44" fill="white" transform="translate(0.0205078 0.640625)"/>
</clipPath>
<clipPath id="clip3_9_1435">
<rect width="71.94" height="71.94" fill="white" transform="translate(0.0205078 -0.609375)"/>
</clipPath>
</defs>
</svg>
