<svg width="72" height="71" viewBox="0 0 72 71" fill="none" xmlns="http://www.w3.org/2000/svg">
<g clip-path="url(#clip0_9_1446)">
<g clip-path="url(#clip1_9_1446)">
<g clip-path="url(#clip2_9_1446)">
<g clip-path="url(#clip3_9_1446)">
<path d="M44.0523 16.6833C37.0944 16.6833 30.2366 19.6704 25.0009 25.5432V-3.41797H14.6401V45.34C14.6401 45.3411 14.6401 45.3423 14.6401 45.3437C14.6401 61.1722 27.4716 74.0037 43.3004 74.0037C59.1289 74.0037 71.9606 61.1722 71.9606 45.3437C71.9606 29.5152 59.8808 16.6833 44.0523 16.6833ZM43.3004 62.9649C33.5682 62.9649 25.6788 55.0754 25.6788 45.3435C25.6788 35.6114 33.5682 27.7219 43.3004 27.7219C53.0323 27.7219 60.9218 35.6114 60.9218 45.3435C60.9218 55.0756 53.0323 62.9649 43.3004 62.9649Z" fill="#262626"/>
<path d="M7.1077 59.8281C3.19345 59.8281 0.0205078 63.0013 0.0205078 66.9153C0.0205078 70.8294 3.19345 74.0025 7.1077 74.0025C11.022 74.0025 14.1949 70.8294 14.1949 66.9153C14.1949 63.0013 11.022 59.8281 7.1077 59.8281Z" fill="#0000FF"/>
</g>
</g>
</g>
</g>
<defs>
<clipPath id="clip0_9_1446">
<rect width="71.94" height="69.44" fill="white" transform="translate(0.0205078 0.640625)"/>
</clipPath>
<clipPath id="clip1_9_1446">
<rect width="71.94" height="69.44" fill="white" transform="translate(0.0205078 0.640625)"/>
</clipPath>
<clipPath id="clip2_9_1446">
<rect width="71.94" height="69.44" fill="white" transform="translate(0.0205078 0.640625)"/>
</clipPath>
<clipPath id="clip3_9_1446">
<rect width="71.94" height="77.5603" fill="white" transform="translate(0.0205078 -3.41797)"/>
</clipPath>
</defs>
</svg>
