<svg width="78" height="71" viewBox="0 0 78 71" fill="none" xmlns="http://www.w3.org/2000/svg">
<g clip-path="url(#clip0_107_137)">
<g clip-path="url(#clip1_107_137)">
<g clip-path="url(#clip2_107_137)">
<g clip-path="url(#clip3_107_137)">
<path d="M44.7222 16.6442C37.7643 16.6442 30.9065 19.6313 25.6708 25.5042V-3.45703H15.3101V45.3009C15.3101 45.3021 15.3101 45.3032 15.3101 45.3046C15.3101 61.1331 28.1416 73.9646 43.9703 73.9646C59.7988 73.9646 72.6305 61.1331 72.6305 45.3046C72.6305 29.4761 60.5507 16.6442 44.7222 16.6442ZM43.9703 62.9258C34.2382 62.9258 26.3487 55.0363 26.3487 45.3044C26.3487 35.5723 34.2382 27.6828 43.9703 27.6828C53.7022 27.6828 61.5917 35.5723 61.5917 45.3044C61.5917 55.0365 53.7022 62.9258 43.9703 62.9258Z" fill="#262626"/>
<path d="M7.77763 59.7891C3.86337 59.7891 0.69043 62.9622 0.69043 66.8763C0.69043 70.7903 3.86337 73.9635 7.77763 73.9635C11.6919 73.9635 14.8648 70.7903 14.8648 66.8763C14.8648 62.9622 11.6919 59.7891 7.77763 59.7891Z" fill="#0000FF"/>
</g>
</g>
</g>
</g>
<defs>
<clipPath id="clip0_107_137">
<rect width="71.94" height="69.44" fill="white" transform="translate(0.69043 0.601562)"/>
</clipPath>
<clipPath id="clip1_107_137">
<rect width="71.94" height="69.44" fill="white" transform="translate(0.69043 0.601562)"/>
</clipPath>
<clipPath id="clip2_107_137">
<rect width="71.94" height="69.44" fill="white" transform="translate(0.69043 0.601562)"/>
</clipPath>
<clipPath id="clip3_107_137">
<rect width="71.94" height="77.5603" fill="white" transform="translate(0.69043 -3.45703)"/>
</clipPath>
</defs>
</svg>
