<svg width="72" height="71" viewBox="0 0 72 71" fill="none" xmlns="http://www.w3.org/2000/svg">
<g clip-path="url(#clip0_9_1404)">
<g clip-path="url(#clip1_9_1404)">
<g clip-path="url(#clip2_9_1404)">
<g clip-path="url(#clip3_9_1404)">
<path d="M59.2211 0.289062H12.7599C5.71576 0.289062 0.0205078 5.98431 0.0205078 13.0284V57.6912C0.0205078 64.7353 5.71576 70.4306 12.7599 70.4306H59.2211C66.2653 70.4306 71.9605 64.7353 71.9605 57.6912V13.0284C71.9605 5.98431 66.2653 0.289062 59.2211 0.289062ZM37.0696 35.2099C35.8706 36.8885 34.192 38.1475 32.2436 38.8669C30.2053 39.6163 27.9572 39.886 25.4993 39.886C24.7799 39.886 24.3003 39.886 24.0005 39.8561C23.7008 39.8261 23.2811 39.8261 22.7116 39.8261V49.4481C22.7416 49.6579 22.5917 49.8377 22.3819 49.8677H16.5667C16.3269 49.8677 16.207 49.7478 16.207 49.478V18.6338C16.207 18.4239 16.2969 18.304 16.5068 18.304C17.0163 18.304 17.4959 18.304 18.1854 18.2741C18.9048 18.2441 19.6541 18.2441 20.4635 18.2141C21.2728 18.1841 22.1421 18.1841 23.0713 18.1542C24.0005 18.1242 24.8998 18.1242 25.799 18.1242C28.257 18.1242 30.2953 18.4239 31.9739 19.0534C33.4726 19.563 34.8515 20.4023 35.9905 21.5114C36.9497 22.4706 37.6991 23.6396 38.1787 24.9285C38.6283 26.1875 38.8681 27.4764 38.8681 28.8253C38.8681 31.4031 38.2686 33.5313 37.0696 35.2099ZM58.3219 46.8702C57.4826 48.0692 56.3136 48.9984 54.9647 49.538C53.4959 50.1675 51.6974 50.4972 49.5392 50.4972C48.1604 50.4972 46.8115 50.3773 45.4626 50.1075C44.4135 49.9277 43.3644 49.5979 42.4052 49.1483C42.1953 49.0284 42.0455 48.8186 42.0754 48.5788V43.3631C42.0754 43.2732 42.1054 43.1533 42.1953 43.0934C42.2853 43.0334 42.3752 43.0634 42.4651 43.1233C43.6341 43.8128 44.8631 44.2924 46.182 44.5921C47.3211 44.8919 48.5201 45.0417 49.7191 45.0417C50.9181 45.0417 51.6674 44.8919 52.207 44.6221C52.6866 44.4123 53.0163 43.9027 53.0163 43.3631C53.0163 42.9435 52.7765 42.5538 52.2969 42.1641C51.8173 41.7745 50.8281 41.3248 49.3594 40.7553C47.8306 40.2158 46.4218 39.4964 45.1029 38.5971C44.1737 37.9377 43.3943 37.0684 42.8248 36.0492C42.3452 35.09 42.1054 34.0409 42.1354 32.9918C42.1354 31.7029 42.4951 30.4739 43.1545 29.3648C43.9039 28.1658 45.013 27.2066 46.3019 26.6071C47.7107 25.8877 49.4793 25.558 51.6075 25.558C52.8365 25.558 54.0954 25.6479 55.3244 25.8278C56.2236 25.9477 57.0929 26.1875 57.9022 26.5172C58.0221 26.5472 58.142 26.6671 58.202 26.787C58.232 26.9069 58.2619 27.0268 58.2619 27.1467V32.0326C58.2619 32.1525 58.202 32.2724 58.1121 32.3323C57.8423 32.3923 57.6924 32.3923 57.5725 32.3323C56.6733 31.8527 55.7141 31.523 54.6949 31.3132C53.5858 31.0734 52.4768 30.9235 51.3377 30.9235C50.7382 30.8935 50.1087 30.9835 49.5392 31.1333C49.1495 31.2233 48.8198 31.4331 48.61 31.7328C48.4601 31.9726 48.3702 32.2724 48.3702 32.5422C48.3702 32.8119 48.4901 33.0817 48.6699 33.3215C48.9397 33.6512 49.2994 33.921 49.6891 34.1308C50.3785 34.4905 51.0979 34.8203 51.8173 35.12C53.436 35.6596 54.9947 36.4089 56.4335 37.3082C57.4226 37.9377 58.232 38.777 58.8015 39.7961C59.2811 40.7553 59.5209 41.8044 59.4909 42.8835C59.5209 44.2924 59.1012 45.7012 58.3219 46.8702Z" fill="white"/>
<path d="M29.546 24.63C28.4369 24.1804 27.2379 24.0006 26.009 24.0305C25.2296 24.0305 24.5402 24.0305 23.9707 24.0605C23.3712 24.0305 22.9515 24.0605 22.7417 24.0905V34.1621C23.1613 34.1921 23.551 34.222 23.9107 34.222H25.4994C26.6684 34.222 27.8374 34.0422 28.9465 33.6825C29.9057 33.4127 30.745 32.8432 31.4045 32.0938C32.0339 31.3444 32.3337 30.3253 32.3337 29.0064C32.3637 28.0772 32.1239 27.1479 31.6443 26.3386C31.1347 25.5593 30.4153 24.9598 29.546 24.63Z" fill="white"/>
</g>
</g>
</g>
</g>
<defs>
<clipPath id="clip0_9_1404">
<rect width="71" height="70" fill="white" transform="translate(0.0205078 0.640625)"/>
</clipPath>
<clipPath id="clip1_9_1404">
<rect width="71" height="70" fill="white" transform="translate(0.0205078 0.640625)"/>
</clipPath>
<clipPath id="clip2_9_1404">
<rect width="71.94" height="69.44" fill="white" transform="translate(0.0205078 0.640625)"/>
</clipPath>
<clipPath id="clip3_9_1404">
<rect width="71.94" height="70.1415" fill="white" transform="translate(0.0205078 0.289062)"/>
</clipPath>
</defs>
</svg>
