<svg width="31" height="31" viewBox="0 0 31 31" fill="none" xmlns="http://www.w3.org/2000/svg">
<path d="M15.5034 7.81065C11.2468 7.81065 7.81344 11.244 7.81344 15.5005C7.81344 19.7572 11.2468 23.1904 15.5034 23.1904C19.7599 23.1904 23.1933 19.7572 23.1933 15.5005C23.1933 11.244 19.7599 7.81065 15.5034 7.81065ZM15.5034 20.5C12.7527 20.5 10.5039 18.2579 10.5039 15.5005C10.5039 12.7432 12.746 10.5011 15.5034 10.5011C18.2607 10.5011 20.5027 12.7432 20.5027 15.5005C20.5027 18.2579 18.254 20.5 15.5034 20.5ZM25.3015 7.4961C25.3015 8.49331 24.4984 9.28974 23.5078 9.28974C22.5106 9.28974 21.7141 8.48661 21.7141 7.4961C21.7141 6.50557 22.5173 5.70246 23.5078 5.70246C24.4984 5.70246 25.3015 6.50557 25.3015 7.4961ZM30.3946 9.31651C30.2809 6.91384 29.732 4.78556 27.9719 3.03207C26.2184 1.27859 24.0901 0.729784 21.6874 0.609316C19.2111 0.46877 11.7889 0.46877 9.3126 0.609316C6.91663 0.723092 4.78835 1.27189 3.02816 3.02537C1.26799 4.77886 0.725879 6.90714 0.60541 9.30982C0.464863 11.7861 0.464863 19.2083 0.60541 21.6846C0.719186 24.0873 1.26799 26.2155 3.02816 27.969C4.78835 29.7225 6.90992 30.2713 9.3126 30.3918C11.7889 30.5323 19.2111 30.5323 21.6874 30.3918C24.0901 30.278 26.2184 29.7292 27.9719 27.969C29.7254 26.2155 30.2741 24.0873 30.3946 21.6846C30.5351 19.2083 30.5351 11.7928 30.3946 9.31651ZM27.1955 24.3415C26.6735 25.6534 25.6629 26.6639 24.3444 27.1927C22.37 27.9758 17.6851 27.795 15.5034 27.795C13.3215 27.795 8.62995 27.969 6.6623 27.1927C5.35052 26.6707 4.33994 25.66 3.81121 24.3415C3.02816 22.3673 3.20886 17.6824 3.20886 15.5005C3.20886 13.3188 3.03486 8.62716 3.81121 6.65951C4.33324 5.34775 5.34384 4.33715 6.6623 3.80842C8.63664 3.02537 13.3215 3.20609 15.5034 3.20609C17.6851 3.20609 22.3768 3.03207 24.3444 3.80842C25.6561 4.33045 26.6667 5.34105 27.1955 6.65951C27.9785 8.63386 27.7979 13.3188 27.7979 15.5005C27.7979 17.6824 27.9785 22.3739 27.1955 24.3415Z" fill="black"/>
</svg>
