<svg width="31" height="31" viewBox="0 0 31 31" fill="none" xmlns="http://www.w3.org/2000/svg">
<path d="M15.4736 7.81065C11.217 7.81065 7.78365 11.244 7.78365 15.5005C7.78365 19.7572 11.217 23.1904 15.4736 23.1904C19.7301 23.1904 23.1635 19.7572 23.1635 15.5005C23.1635 11.244 19.7301 7.81065 15.4736 7.81065ZM15.4736 20.5C12.7229 20.5 10.4741 18.2579 10.4741 15.5005C10.4741 12.7432 12.7162 10.5011 15.4736 10.5011C18.231 10.5011 20.473 12.7432 20.473 15.5005C20.473 18.2579 18.2242 20.5 15.4736 20.5ZM25.2717 7.4961C25.2717 8.49331 24.4686 9.28974 23.478 9.28974C22.4808 9.28974 21.6843 8.48661 21.6843 7.4961C21.6843 6.50557 22.4875 5.70246 23.478 5.70246C24.4686 5.70246 25.2717 6.50557 25.2717 7.4961ZM30.3648 9.31651C30.2511 6.91384 29.7022 4.78556 27.9421 3.03207C26.1886 1.27859 24.0603 0.729784 21.6576 0.609316C19.1813 0.46877 11.7591 0.46877 9.28281 0.609316C6.88684 0.723092 4.75856 1.27189 2.99838 3.02537C1.2382 4.77886 0.696094 6.90714 0.575625 9.30982C0.435078 11.7861 0.435078 19.2083 0.575625 21.6846C0.689401 24.0873 1.2382 26.2155 2.99838 27.969C4.75856 29.7225 6.88014 30.2713 9.28281 30.3918C11.7591 30.5323 19.1813 30.5323 21.6576 30.3918C24.0603 30.278 26.1886 29.7292 27.9421 27.969C29.6956 26.2155 30.2443 24.0873 30.3648 21.6846C30.5053 19.2083 30.5053 11.7928 30.3648 9.31651ZM27.1657 24.3415C26.6437 25.6534 25.6331 26.6639 24.3146 27.1927C22.3402 27.9758 17.6553 27.795 15.4736 27.795C13.2917 27.795 8.60017 27.969 6.63251 27.1927C5.32074 26.6707 4.31015 25.66 3.78143 24.3415C2.99838 22.3673 3.17908 17.6824 3.17908 15.5005C3.17908 13.3188 3.00508 8.62716 3.78143 6.65951C4.30345 5.34775 5.31405 4.33715 6.63251 3.80842C8.60685 3.02537 13.2917 3.20609 15.4736 3.20609C17.6553 3.20609 22.347 3.03207 24.3146 3.80842C25.6263 4.33045 26.637 5.34105 27.1657 6.65951C27.9487 8.63386 27.7681 13.3188 27.7681 15.5005C27.7681 17.6824 27.9487 22.3739 27.1657 24.3415Z" fill="black"/>
</svg>
