<svg width="31" height="31" viewBox="0 0 31 31" fill="none" xmlns="http://www.w3.org/2000/svg">
<path d="M15.4834 7.81065C11.2268 7.81065 7.79342 11.244 7.79342 15.5005C7.79342 19.7572 11.2268 23.1904 15.4834 23.1904C19.7399 23.1904 23.1732 19.7572 23.1732 15.5005C23.1732 11.244 19.7399 7.81065 15.4834 7.81065ZM15.4834 20.5C12.7326 20.5 10.4839 18.2579 10.4839 15.5005C10.4839 12.7432 12.7259 10.5011 15.4834 10.5011C18.2407 10.5011 20.4827 12.7432 20.4827 15.5005C20.4827 18.2579 18.234 20.5 15.4834 20.5ZM25.2815 7.4961C25.2815 8.49331 24.4784 9.28974 23.4877 9.28974C22.4906 9.28974 21.6941 8.48661 21.6941 7.4961C21.6941 6.50557 22.4972 5.70246 23.4877 5.70246C24.4784 5.70246 25.2815 6.50557 25.2815 7.4961ZM30.3746 9.31651C30.2609 6.91384 29.712 4.78556 27.9519 3.03207C26.1984 1.27859 24.0701 0.729784 21.6674 0.609316C19.1911 0.46877 11.7689 0.46877 9.29258 0.609316C6.89661 0.723092 4.76833 1.27189 3.00814 3.02537C1.24797 4.77886 0.705859 6.90714 0.58539 9.30982C0.444844 11.7861 0.444844 19.2083 0.58539 21.6846C0.699167 24.0873 1.24797 26.2155 3.00814 27.969C4.76833 29.7225 6.88991 30.2713 9.29258 30.3918C11.7689 30.5323 19.1911 30.5323 21.6674 30.3918C24.0701 30.278 26.1984 29.7292 27.9519 27.969C29.7054 26.2155 30.2541 24.0873 30.3746 21.6846C30.5151 19.2083 30.5151 11.7928 30.3746 9.31651ZM27.1755 24.3415C26.6535 25.6534 25.6429 26.6639 24.3244 27.1927C22.35 27.9758 17.6651 27.795 15.4834 27.795C13.3015 27.795 8.60993 27.969 6.64228 27.1927C5.33051 26.6707 4.31992 25.66 3.79119 24.3415C3.00814 22.3673 3.18884 17.6824 3.18884 15.5005C3.18884 13.3188 3.01484 8.62716 3.79119 6.65951C4.31322 5.34775 5.32382 4.33715 6.64228 3.80842C8.61662 3.02537 13.3015 3.20609 15.4834 3.20609C17.6651 3.20609 22.3567 3.03207 24.3244 3.80842C25.6361 4.33045 26.6467 5.34105 27.1755 6.65951C27.9585 8.63386 27.7779 13.3188 27.7779 15.5005C27.7779 17.6824 27.9585 22.3739 27.1755 24.3415Z" fill="black"/>
</svg>
