<svg width="31" height="31" viewBox="0 0 31 31" fill="none" xmlns="http://www.w3.org/2000/svg">
<path d="M15.0634 7.70518C10.8068 7.70518 7.3735 11.1385 7.3735 15.3951C7.3735 19.6517 10.8068 23.085 15.0634 23.085C19.3199 23.085 22.7533 19.6517 22.7533 15.3951C22.7533 11.1385 19.3199 7.70518 15.0634 7.70518ZM15.0634 20.3946C12.3127 20.3946 10.064 18.1525 10.064 15.3951C10.064 12.6377 12.306 10.3957 15.0634 10.3957C17.8208 10.3957 20.0628 12.6377 20.0628 15.3951C20.0628 18.1525 17.8141 20.3946 15.0634 20.3946ZM24.8616 7.39063C24.8616 8.38784 24.0584 9.18427 23.0678 9.18427C22.0707 9.18427 21.2742 8.38114 21.2742 7.39063C21.2742 6.40011 22.0773 5.59699 23.0678 5.59699C24.0584 5.59699 24.8616 6.40011 24.8616 7.39063ZM29.9547 9.21104C29.8409 6.80837 29.2921 4.68009 27.5319 2.92661C25.7784 1.17312 23.6502 0.624316 21.2474 0.503847C18.7712 0.363301 11.349 0.363301 8.87266 0.503847C6.47668 0.617623 4.34841 1.16642 2.58822 2.91991C0.828045 4.67339 0.285937 6.80167 0.165468 9.20436C0.024922 11.6806 0.024922 19.1028 0.165468 21.5791C0.279245 23.9818 0.828045 26.1101 2.58822 27.8636C4.34841 29.6171 6.46998 30.1658 8.87266 30.2863C11.349 30.4268 18.7712 30.4268 21.2474 30.2863C23.6502 30.1726 25.7784 29.6237 27.5319 27.8636C29.2854 26.1101 29.8342 23.9818 29.9547 21.5791C30.0952 19.1028 30.0952 11.6873 29.9547 9.21104ZM26.7556 24.2361C26.2336 25.548 25.2229 26.5585 23.9044 27.0872C21.9301 27.8703 17.2452 27.6896 15.0634 27.6896C12.8816 27.6896 8.19001 27.8636 6.22236 27.0872C4.91058 26.5652 3.9 25.5546 3.37127 24.2361C2.58822 22.2618 2.76892 17.577 2.76892 15.3951C2.76892 13.2133 2.59492 8.52169 3.37127 6.55404C3.8933 5.24228 4.9039 4.23168 6.22236 3.70296C8.1967 2.91991 12.8816 3.10062 15.0634 3.10062C17.2452 3.10062 21.9368 2.92661 23.9044 3.70296C25.2162 4.22498 26.2268 5.23558 26.7556 6.55404C27.5386 8.52839 27.3579 13.2133 27.3579 15.3951C27.3579 17.577 27.5386 22.2685 26.7556 24.2361Z" fill="black"/>
</svg>
