<svg width="30" height="32" viewBox="0 0 30 32" fill="none" xmlns="http://www.w3.org/2000/svg">
<path d="M15.0034 7.81065C10.7468 7.81065 7.31344 11.244 7.31344 15.5005C7.31344 19.7572 10.7468 23.1904 15.0034 23.1904C19.2599 23.1904 22.6933 19.7572 22.6933 15.5005C22.6933 11.244 19.2599 7.81065 15.0034 7.81065ZM15.0034 20.5C12.2527 20.5 10.0039 18.2579 10.0039 15.5005C10.0039 12.7432 12.246 10.5011 15.0034 10.5011C17.7607 10.5011 20.0027 12.7432 20.0027 15.5005C20.0027 18.2579 17.754 20.5 15.0034 20.5ZM24.8015 7.4961C24.8015 8.49331 23.9984 9.28974 23.0078 9.28974C22.0106 9.28974 21.2141 8.48661 21.2141 7.4961C21.2141 6.50557 22.0173 5.70246 23.0078 5.70246C23.9984 5.70246 24.8015 6.50557 24.8015 7.4961ZM29.8946 9.31651C29.7809 6.91384 29.232 4.78556 27.4719 3.03207C25.7184 1.27859 23.5901 0.729784 21.1874 0.609316C18.7111 0.46877 11.2889 0.46877 8.8126 0.609316C6.41663 0.723092 4.28835 1.27189 2.52816 3.02537C0.767986 4.77886 0.225879 6.90714 0.10541 9.30982C-0.0351366 11.7861 -0.0351366 19.2083 0.10541 21.6846C0.219186 24.0873 0.767986 26.2155 2.52816 27.969C4.28835 29.7225 6.40992 30.2713 8.8126 30.3918C11.2889 30.5323 18.7111 30.5323 21.1874 30.3918C23.5901 30.278 25.7184 29.7292 27.4719 27.969C29.2254 26.2155 29.7741 24.0873 29.8946 21.6846C30.0351 19.2083 30.0351 11.7928 29.8946 9.31651ZM26.6955 24.3415C26.1735 25.6534 25.1629 26.6639 23.8444 27.1927C21.87 27.9758 17.1851 27.795 15.0034 27.795C12.8215 27.795 8.12995 27.969 6.1623 27.1927C4.85052 26.6707 3.83994 25.66 3.31121 24.3415C2.52816 22.3673 2.70886 17.6824 2.70886 15.5005C2.70886 13.3188 2.53486 8.62716 3.31121 6.65951C3.83324 5.34775 4.84384 4.33715 6.1623 3.80842C8.13664 3.02537 12.8215 3.20609 15.0034 3.20609C17.1851 3.20609 21.8768 3.03207 23.8444 3.80842C25.1561 4.33045 26.1667 5.34105 26.6955 6.65951C27.4785 8.63386 27.2979 13.3188 27.2979 15.5005C27.2979 17.6824 27.4785 22.3739 26.6955 24.3415Z" fill="black"/>
</svg>
