<svg width="31" height="31" viewBox="0 0 31 31" fill="none" xmlns="http://www.w3.org/2000/svg">
<path d="M15.7734 8.11534C11.5168 8.11534 8.08346 11.5487 8.08346 15.8052C8.08346 20.0619 11.5168 23.4951 15.7734 23.4951C20.0299 23.4951 23.4633 20.0619 23.4633 15.8052C23.4633 11.5487 20.0299 8.11534 15.7734 8.11534ZM15.7734 20.8047C13.0227 20.8047 10.7739 18.5626 10.7739 15.8052C10.7739 13.0479 13.016 10.8058 15.7734 10.8058C18.5308 10.8058 20.7728 13.0479 20.7728 15.8052C20.7728 18.5626 18.524 20.8047 15.7734 20.8047ZM25.5715 7.80079C25.5715 8.798 24.7684 9.59442 23.7778 9.59442C22.7806 9.59442 21.9841 8.7913 21.9841 7.80079C21.9841 6.81026 22.7873 6.00715 23.7778 6.00715C24.7684 6.00715 25.5715 6.81026 25.5715 7.80079ZM30.6646 9.6212C30.5509 7.21852 30.002 5.09025 28.2419 3.33676C26.4884 1.58327 24.3601 1.03447 21.9574 0.914004C19.4811 0.773457 12.0589 0.773457 9.58262 0.914004C7.18664 1.02778 5.05837 1.57658 3.29818 3.33006C1.53801 5.08355 0.995898 7.21182 0.875429 9.61451C0.734883 12.0908 0.734883 19.513 0.875429 21.9892C0.989206 24.392 1.53801 26.5202 3.29818 28.2737C5.05837 30.0272 7.17994 30.576 9.58262 30.6965C12.0589 30.837 19.4811 30.837 21.9574 30.6965C24.3601 30.5827 26.4884 30.0339 28.2419 28.2737C29.9954 26.5202 30.5441 24.392 30.6646 21.9892C30.8051 19.513 30.8051 12.0975 30.6646 9.6212ZM27.4655 24.6462C26.9435 25.9581 25.9329 26.9686 24.6144 27.4974C22.64 28.2805 17.9551 28.0997 15.7734 28.0997C13.5915 28.0997 8.89997 28.2737 6.93232 27.4974C5.62054 26.9754 4.60996 25.9647 4.08123 24.6462C3.29818 22.672 3.47888 17.9871 3.47888 15.8052C3.47888 13.6235 3.30488 8.93185 4.08123 6.9642C4.60326 5.65244 5.61386 4.64184 6.93232 4.11311C8.90666 3.33006 13.5915 3.51077 15.7734 3.51077C17.9551 3.51077 22.6468 3.33676 24.6144 4.11311C25.9261 4.63514 26.9368 5.64574 27.4655 6.9642C28.2485 8.93855 28.0679 13.6235 28.0679 15.8052C28.0679 17.9871 28.2485 22.6786 27.4655 24.6462Z" fill="black"/>
</svg>
