<svg width="258" height="59" viewBox="0 0 258 59" fill="none" xmlns="http://www.w3.org/2000/svg">
<g clip-path="url(#clip0_112_786)">
<g clip-path="url(#clip1_112_786)">
<g clip-path="url(#clip2_112_786)">
<path d="M148.375 0.25H109.625C103.75 0.25 99 5 99 10.875V48.125C99 54 103.75 58.75 109.625 58.75H148.375C154.25 58.75 159 54 159 48.125V10.875C159 5 154.25 0.25 148.375 0.25ZM129.9 29.375C128.9 30.775 127.5 31.825 125.875 32.425C124.175 33.05 122.3 33.275 120.25 33.275C119.65 33.275 119.25 33.275 119 33.25C118.75 33.225 118.4 33.225 117.925 33.225V41.25C117.95 41.425 117.825 41.575 117.65 41.6H112.8C112.6 41.6 112.5 41.5 112.5 41.275V15.55C112.5 15.375 112.575 15.275 112.75 15.275C113.175 15.275 113.575 15.275 114.15 15.25C114.75 15.225 115.375 15.225 116.05 15.2C116.725 15.175 117.45 15.175 118.225 15.15C119 15.125 119.75 15.125 120.5 15.125C122.55 15.125 124.25 15.375 125.65 15.9C126.9 16.325 128.05 17.025 129 17.95C129.8 18.75 130.425 19.725 130.825 20.8C131.2 21.85 131.4 22.925 131.4 24.05C131.4 26.2 130.9 27.975 129.9 29.375ZM147.625 39.1C146.925 40.1 145.95 40.875 144.825 41.325C143.6 41.85 142.1 42.125 140.3 42.125C139.15 42.125 138.025 42.025 136.9 41.8C136.025 41.65 135.15 41.375 134.35 41C134.175 40.9 134.05 40.725 134.075 40.525V36.175C134.075 36.1 134.1 36 134.175 35.95C134.25 35.9 134.325 35.925 134.4 35.975C135.375 36.55 136.4 36.95 137.5 37.2C138.45 37.45 139.45 37.575 140.45 37.575C141.45 37.575 142.075 37.45 142.525 37.225C142.925 37.05 143.2 36.625 143.2 36.175C143.2 35.825 143 35.5 142.6 35.175C142.2 34.85 141.375 34.475 140.15 34C138.875 33.55 137.7 32.95 136.6 32.2C135.825 31.65 135.175 30.925 134.7 30.075C134.3 29.275 134.1 28.4 134.125 27.525C134.125 26.45 134.425 25.425 134.975 24.5C135.6 23.5 136.525 22.7 137.6 22.2C138.775 21.6 140.25 21.325 142.025 21.325C143.05 21.325 144.1 21.4 145.125 21.55C145.875 21.65 146.6 21.85 147.275 22.125C147.375 22.15 147.475 22.25 147.525 22.35C147.55 22.45 147.575 22.55 147.575 22.65V26.725C147.575 26.825 147.525 26.925 147.45 26.975C147.225 27.025 147.1 27.025 147 26.975C146.25 26.575 145.45 26.3 144.6 26.125C143.675 25.925 142.75 25.8 141.8 25.8C141.3 25.775 140.775 25.85 140.3 25.975C139.975 26.05 139.7 26.225 139.525 26.475C139.4 26.675 139.325 26.925 139.325 27.15C139.325 27.375 139.425 27.6 139.575 27.8C139.8 28.075 140.1 28.3 140.425 28.475C141 28.775 141.6 29.05 142.2 29.3C143.55 29.75 144.85 30.375 146.05 31.125C146.875 31.65 147.55 32.35 148.025 33.2C148.425 34 148.625 34.875 148.6 35.775C148.625 36.95 148.275 38.125 147.625 39.1Z" fill="white"/>
<path d="M123.625 20.5495C122.7 20.1745 121.7 20.0245 120.675 20.0495C120.025 20.0495 119.45 20.0495 118.975 20.0745C118.475 20.0495 118.125 20.0745 117.95 20.0995V28.4995C118.3 28.5245 118.625 28.5495 118.925 28.5495H120.25C121.225 28.5495 122.2 28.3995 123.125 28.0995C123.925 27.8745 124.625 27.3995 125.175 26.7745C125.7 26.1495 125.95 25.2995 125.95 24.1995C125.975 23.4245 125.775 22.6495 125.375 21.9745C124.95 21.3245 124.35 20.8245 123.625 20.5495Z" fill="white"/>
</g>
</g>
</g>
<defs>
<clipPath id="clip0_112_786">
<rect width="258" height="58.5" fill="white" transform="matrix(-1 0 0 1 258 0.25)"/>
</clipPath>
<clipPath id="clip1_112_786">
<rect width="60" height="58.5" fill="white" transform="translate(99 0.25)"/>
</clipPath>
<clipPath id="clip2_112_786">
<rect width="60" height="58.5" fill="white" transform="translate(99 0.25)"/>
</clipPath>
</defs>
</svg>
