<svg width="86" height="84" viewBox="0 0 86 84" fill="none" xmlns="http://www.w3.org/2000/svg">
<g clip-path="url(#clip0_9_1144)">
<g clip-path="url(#clip1_9_1144)">
<g clip-path="url(#clip2_9_1144)">
<path d="M70.7708 0.464844H15.2292C6.80833 0.464844 0 7.27318 0 15.694V69.0857C0 77.5065 6.80833 84.3148 15.2292 84.3148H70.7708C79.1917 84.3148 86 77.5065 86 69.0857V15.694C86 7.27318 79.1917 0.464844 70.7708 0.464844ZM44.29 42.2107C42.8567 44.2173 40.85 45.7223 38.5208 46.5823C36.0842 47.4782 33.3967 47.8007 30.4583 47.8007C29.5983 47.8007 29.025 47.8007 28.6667 47.7648C28.3083 47.729 27.8067 47.729 27.1258 47.729V59.2315C27.1617 59.4823 26.9825 59.6973 26.7317 59.7332H19.78C19.4933 59.7332 19.35 59.5898 19.35 59.2673V22.3948C19.35 22.144 19.4575 22.0007 19.7083 22.0007C20.3175 22.0007 20.8908 22.0007 21.715 21.9648C22.575 21.929 23.4708 21.929 24.4383 21.8932C25.4058 21.8573 26.445 21.8573 27.5558 21.8215C28.6667 21.7857 29.7417 21.7857 30.8167 21.7857C33.755 21.7857 36.1917 22.144 38.1983 22.8965C39.99 23.5057 41.6383 24.509 43 25.8348C44.1467 26.9815 45.0425 28.379 45.6158 29.9198C46.1533 31.4248 46.44 32.9657 46.44 34.5782C46.44 37.6598 45.7233 40.204 44.29 42.2107ZM69.6958 56.1498C68.6925 57.5832 67.295 58.694 65.6825 59.339C63.9267 60.0915 61.7767 60.4857 59.1967 60.4857C57.5483 60.4857 55.9358 60.3423 54.3233 60.0198C53.0692 59.8048 51.815 59.4107 50.6683 58.8732C50.4175 58.7298 50.2383 58.479 50.2742 58.1923V51.9573C50.2742 51.8498 50.31 51.7065 50.4175 51.6348C50.525 51.5632 50.6325 51.599 50.74 51.6707C52.1375 52.4948 53.6067 53.0682 55.1833 53.4265C56.545 53.7848 57.9783 53.964 59.4117 53.964C60.845 53.964 61.7408 53.7848 62.3858 53.4623C62.9592 53.2115 63.3533 52.6023 63.3533 51.9573C63.3533 51.4557 63.0667 50.9898 62.4933 50.524C61.92 50.0582 60.7375 49.5207 58.9817 48.8398C57.1542 48.1948 55.47 47.3348 53.8933 46.2598C52.7825 45.4715 51.8508 44.4323 51.17 43.214C50.5967 42.0673 50.31 40.8132 50.3458 39.559C50.3458 38.0182 50.7758 36.549 51.5642 35.2232C52.46 33.7898 53.7858 32.6432 55.3267 31.9265C57.0108 31.0665 59.125 30.6723 61.6692 30.6723C63.1383 30.6723 64.6433 30.7798 66.1125 30.9948C67.1875 31.1382 68.2267 31.4248 69.1942 31.819C69.3375 31.8548 69.4808 31.9982 69.5525 32.1415C69.5883 32.2848 69.6242 32.4282 69.6242 32.5715V38.4123C69.6242 38.5557 69.5525 38.699 69.445 38.7707C69.1225 38.8423 68.9433 38.8423 68.8 38.7707C67.725 38.1973 66.5783 37.8032 65.36 37.5523C64.0342 37.2657 62.7083 37.0865 61.3467 37.0865C60.63 37.0507 59.8775 37.1582 59.1967 37.3373C58.7308 37.4448 58.3367 37.6957 58.0858 38.054C57.9067 38.3407 57.7992 38.699 57.7992 39.0215C57.7992 39.344 57.9425 39.6665 58.1575 39.9532C58.48 40.3473 58.91 40.6698 59.3758 40.9207C60.2 41.3507 61.06 41.7448 61.92 42.1032C63.855 42.7482 65.7183 43.644 67.4383 44.719C68.6208 45.4715 69.5883 46.4748 70.2692 47.6932C70.8425 48.8398 71.1292 50.094 71.0933 51.384C71.1292 53.0682 70.6275 54.7523 69.6958 56.1498Z" fill="white"/>
<path d="M35.2958 29.5603C33.97 29.0228 32.5366 28.8078 31.0675 28.8437C30.1358 28.8437 29.3116 28.8437 28.6308 28.8795C27.9141 28.8437 27.4125 28.8795 27.1616 28.9153V40.9553C27.6633 40.9912 28.1291 41.027 28.5591 41.027H30.4583C31.8558 41.027 33.2533 40.812 34.5791 40.382C35.7258 40.0595 36.7291 39.3787 37.5175 38.4828C38.27 37.587 38.6283 36.3687 38.6283 34.792C38.6641 33.6812 38.3775 32.5703 37.8041 31.6028C37.195 30.6712 36.335 29.9545 35.2958 29.5603Z" fill="white"/>
</g>
</g>
</g>
<defs>
<clipPath id="clip0_9_1144">
<rect width="86" height="83" fill="white" transform="translate(0 0.890625)"/>
</clipPath>
<clipPath id="clip1_9_1144">
<rect width="86" height="83" fill="white" transform="translate(0 0.890625)"/>
</clipPath>
<clipPath id="clip2_9_1144">
<rect width="86" height="83.85" fill="white" transform="translate(0 0.464844)"/>
</clipPath>
</defs>
</svg>
