<svg width="60" height="61" viewBox="0 0 60 61" fill="none" xmlns="http://www.w3.org/2000/svg">
<g clip-path="url(#clip0_112_809)">
<g clip-path="url(#clip1_112_809)">
<path d="M30 60.75C13.4315 60.75 0 47.3185 0 30.75C0 14.1815 13.4315 0.75 30 0.75C46.5685 0.75 60 14.1815 60 30.75C60 47.3185 46.5685 60.75 30 60.75Z" fill="#4353FF"/>
<path d="M21.1873 27.1867L23.9061 35.7555C23.9061 35.0992 25.7811 20.8867 25.7811 20.8867C30.0936 20.8867 32.3811 23.943 33.5811 27.1867L36.8998 35.7742C36.8998 35.1555 37.3686 27.2617 37.3686 27.2617C37.5286 25.5529 38.3098 23.9621 39.5642 22.7907C40.8186 21.6192 42.459 20.9485 44.1748 20.9055L40.6498 42.4305C36.1498 42.4305 33.7123 39.3742 32.4561 36.1305L29.6436 28.818C29.6436 29.118 27.7686 42.4305 27.7686 42.4305C25.9284 42.4281 24.1369 41.8398 22.6536 40.7509C21.1702 39.662 20.0722 38.1291 19.5186 36.3742L13.1436 20.8867C17.6436 20.8867 20.0061 23.943 21.2061 27.1867H21.1873Z" fill="white"/>
</g>
</g>
<defs>
<clipPath id="clip0_112_809">
<rect width="60" height="58" fill="white" transform="matrix(-1 0 0 1 60 1.75)"/>
</clipPath>
<clipPath id="clip1_112_809">
<rect width="60" height="60" fill="white" transform="matrix(-1 0 0 1 60 0.75)"/>
</clipPath>
</defs>
</svg>
