<svg width="87" height="84" viewBox="0 0 87 84" fill="none" xmlns="http://www.w3.org/2000/svg">
<g clip-path="url(#clip0_9_914)">
<g clip-path="url(#clip1_9_914)">
<g clip-path="url(#clip2_9_914)">
<path d="M43.0205 84.8906C66.7688 84.8906 86.0205 65.6389 86.0205 41.8906C86.0205 18.1424 66.7688 -1.10938 43.0205 -1.10938C19.2723 -1.10938 0.0205078 18.1424 0.0205078 41.8906C0.0205078 65.6389 19.2723 84.8906 43.0205 84.8906Z" fill="#4353FF"/>
<path d="M55.6518 36.7839L51.7549 49.0658C51.7549 48.1251 49.0674 27.7539 49.0674 27.7539C42.8861 27.7539 39.6074 32.1345 37.8874 36.7839L33.1305 49.0927C33.1305 48.2058 32.4586 36.8914 32.4586 36.8914C32.2292 34.4421 31.1095 32.1619 29.3115 30.4829C27.5136 28.8038 25.1623 27.8424 22.703 27.7808L27.7555 58.6333C34.2055 58.6333 37.6993 54.2526 39.4999 49.6033L43.5311 39.122C43.5311 39.552 46.2186 58.6333 46.2186 58.6333C48.8561 58.6299 51.424 57.7867 53.5501 56.2259C55.6762 54.6652 57.2501 52.4679 58.0436 49.9527L67.1811 27.7539C60.7311 27.7539 57.3449 32.1345 55.6249 36.7839H55.6518Z" fill="white"/>
</g>
</g>
</g>
<defs>
<clipPath id="clip0_9_914">
<rect width="86" height="83" fill="white" transform="translate(0.0205078 0.390625)"/>
</clipPath>
<clipPath id="clip1_9_914">
<rect width="86" height="83" fill="white" transform="translate(0.0205078 0.390625)"/>
</clipPath>
<clipPath id="clip2_9_914">
<rect width="86" height="86" fill="white" transform="translate(0.0205078 -1.10938)"/>
</clipPath>
</defs>
</svg>
