<svg width="87" height="84" viewBox="0 0 87 84" fill="none" xmlns="http://www.w3.org/2000/svg">
<g clip-path="url(#clip0_9_1168)">
<g clip-path="url(#clip1_9_1168)">
<g clip-path="url(#clip2_9_1168)">
<path d="M43.0205 84.8906C66.7688 84.8906 86.0205 65.6389 86.0205 41.8906C86.0205 18.1424 66.7688 -1.10938 43.0205 -1.10938C19.2723 -1.10938 0.0205078 18.1424 0.0205078 41.8906C0.0205078 65.6389 19.2723 84.8906 43.0205 84.8906Z" fill="#4353FF"/>
<path d="M55.6519 36.7839L51.755 49.0658C51.755 48.1251 49.0675 27.7539 49.0675 27.7539C42.8863 27.7539 39.6075 32.1345 37.8875 36.7839L33.1306 49.0927C33.1306 48.2058 32.4588 36.8914 32.4588 36.8914C32.2293 34.4421 31.1096 32.1619 29.3116 30.4829C27.5137 28.8038 25.1624 27.8424 22.7031 27.7808L27.7556 58.6333C34.2056 58.6333 37.6994 54.2526 39.5 49.6033L43.5313 39.122C43.5313 39.552 46.2188 58.6333 46.2188 58.6333C48.8562 58.6299 51.4241 57.7867 53.5502 56.2259C55.6763 54.6652 57.2502 52.4679 58.0438 49.9527L67.1812 27.7539C60.7312 27.7539 57.345 32.1345 55.625 36.7839H55.6519Z" fill="white"/>
</g>
</g>
</g>
<defs>
<clipPath id="clip0_9_1168">
<rect width="86" height="83" fill="white" transform="translate(0.0205078 0.390625)"/>
</clipPath>
<clipPath id="clip1_9_1168">
<rect width="86" height="83" fill="white" transform="translate(0.0205078 0.390625)"/>
</clipPath>
<clipPath id="clip2_9_1168">
<rect width="86" height="86" fill="white" transform="translate(0.0205078 -1.10938)"/>
</clipPath>
</defs>
</svg>
